<svg xmlns="http://www.w3.org/2000/svg" version="1.1" xmlns:xlink="http://www.w3.org/1999/xlink" xmlns:svgjs="http://svgjs.com/svgjs" viewBox="0 0 1024 1024" fill="#ffffff"><rect width="1024" height="1024" fill="#ffffff" x="0" y="0"></rect><rect width="28" height="28" x="358" y="50" opacity="1" fill="#000000" transform="matrix(1,0,0,1,0,0)"></rect><rect width="28" height="28" x="470" y="50" opacity="1" fill="#000000" transform="matrix(1,0,0,1,0,0)"></rect><rect width="28" height="28" x="498" y="50" opacity="1" fill="#000000" transform="matrix(1,0,0,1,0,0)"></rect><rect width="28" height="28" x="554" y="50" opacity="1" fill="#000000" transform="matrix(1,0,0,1,0,0)"></rect><rect width="28" height="28" x="666" y="50" opacity="1" fill="#000000" transform="matrix(1,0,0,1,0,0)"></rect><rect width="28" height="28" x="722" y="50" opacity="1" fill="#000000" transform="matrix(1,0,0,1,0,0)"></rect><rect width="28" height="28" x="302" y="78" opacity="1" fill="#000000" transform="matrix(1,0,0,1,0,0)"></rect><rect width="28" height="28" x="358" y="78" opacity="1" fill="#000000" transform="matrix(1,0,0,1,0,0)"></rect><rect width="28" height="28" x="414" y="78" opacity="1" fill="#000000" transform="matrix(1,0,0,1,0,0)"></rect><rect width="28" height="28" x="442" y="78" opacity="1" fill="#000000" transform="matrix(1,0,0,1,0,0)"></rect><rect width="28" height="28" x="470" y="78" opacity="1" fill="#000000" transform="matrix(1,0,0,1,0,0)"></rect><rect width="28" height="28" x="498" y="78" opacity="1" fill="#000000" transform="matrix(1,0,0,1,0,0)"></rect><rect width="28" height="28" x="526" y="78" opacity="1" fill="#000000" transform="matrix(1,0,0,1,0,0)"></rect><rect width="28" height="28" x="582" y="78" opacity="1" fill="#000000" transform="matrix(1,0,0,1,0,0)"></rect><rect width="28" height="28" x="610" y="78" opacity="1" fill="#000000" transform="matrix(1,0,0,1,0,0)"></rect><rect width="28" height="28" x="638" y="78" opacity="1" fill="#000000" transform="matrix(1,0,0,1,0,0)"></rect><rect width="28" height="28" x="666" y="78" opacity="1" fill="#000000" transform="matrix(1,0,0,1,0,0)"></rect><rect width="28" height="28" x="722" y="78" opacity="1" fill="#000000" transform="matrix(1,0,0,1,0,0)"></rect><rect width="28" height="28" x="274" y="106" opacity="1" fill="#000000" transform="matrix(1,0,0,1,0,0)"></rect><rect width="28" height="28" x="302" y="106" opacity="1" fill="#000000" transform="matrix(1,0,0,1,0,0)"></rect><rect width="28" height="28" x="358" y="106" opacity="1" fill="#000000" transform="matrix(1,0,0,1,0,0)"></rect><rect width="28" height="28" x="386" y="106" opacity="1" fill="#000000" transform="matrix(1,0,0,1,0,0)"></rect><rect width="28" height="28" x="414" y="106" opacity="1" fill="#000000" transform="matrix(1,0,0,1,0,0)"></rect><rect width="28" height="28" x="442" y="106" opacity="1" fill="#000000" transform="matrix(1,0,0,1,0,0)"></rect><rect width="28" height="28" x="554" y="106" opacity="1" fill="#000000" transform="matrix(1,0,0,1,0,0)"></rect><rect width="28" height="28" x="582" y="106" opacity="1" fill="#000000" transform="matrix(1,0,0,1,0,0)"></rect><rect width="28" height="28" x="638" y="106" opacity="1" fill="#000000" transform="matrix(1,0,0,1,0,0)"></rect><rect width="28" height="28" x="666" y="106" opacity="1" fill="#000000" transform="matrix(1,0,0,1,0,0)"></rect><rect width="28" height="28" x="694" y="106" opacity="1" fill="#000000" transform="matrix(1,0,0,1,0,0)"></rect><rect width="28" height="28" x="722" y="106" opacity="1" fill="#000000" transform="matrix(1,0,0,1,0,0)"></rect><rect width="28" height="28" x="274" y="134" opacity="1" fill="#000000" transform="matrix(1,0,0,1,0,0)"></rect><rect width="28" height="28" x="330" y="134" opacity="1" fill="#000000" transform="matrix(1,0,0,1,0,0)"></rect><rect width="28" height="28" x="470" y="134" opacity="1" fill="#000000" transform="matrix(1,0,0,1,0,0)"></rect><rect width="28" height="28" x="498" y="134" opacity="1" fill="#000000" transform="matrix(1,0,0,1,0,0)"></rect><rect width="28" height="28" x="526" y="134" opacity="1" fill="#000000" transform="matrix(1,0,0,1,0,0)"></rect><rect width="28" height="28" x="638" y="134" opacity="1" fill="#000000" transform="matrix(1,0,0,1,0,0)"></rect><rect width="28" height="28" x="694" y="134" opacity="1" fill="#000000" transform="matrix(1,0,0,1,0,0)"></rect><rect width="28" height="28" x="722" y="134" opacity="1" fill="#000000" transform="matrix(1,0,0,1,0,0)"></rect><rect width="28" height="28" x="302" y="162" opacity="1" fill="#000000" transform="matrix(1,0,0,1,0,0)"></rect><rect width="28" height="28" x="330" y="162" opacity="1" fill="#000000" transform="matrix(1,0,0,1,0,0)"></rect><rect width="28" height="28" x="498" y="162" opacity="1" fill="#000000" transform="matrix(1,0,0,1,0,0)"></rect><rect width="28" height="28" x="554" y="162" opacity="1" fill="#000000" transform="matrix(1,0,0,1,0,0)"></rect><rect width="28" height="28" x="582" y="162" opacity="1" fill="#000000" transform="matrix(1,0,0,1,0,0)"></rect><rect width="28" height="28" x="610" y="162" opacity="1" fill="#000000" transform="matrix(1,0,0,1,0,0)"></rect><rect width="28" height="28" x="638" y="162" opacity="1" fill="#000000" transform="matrix(1,0,0,1,0,0)"></rect><rect width="28" height="28" x="302" y="190" opacity="1" fill="#000000" transform="matrix(1,0,0,1,0,0)"></rect><rect width="28" height="28" x="386" y="190" opacity="1" fill="#000000" transform="matrix(1,0,0,1,0,0)"></rect><rect width="28" height="28" x="414" y="190" opacity="1" fill="#000000" transform="matrix(1,0,0,1,0,0)"></rect><rect width="28" height="28" x="498" y="190" opacity="1" fill="#000000" transform="matrix(1,0,0,1,0,0)"></rect><rect width="28" height="28" x="582" y="190" opacity="1" fill="#000000" transform="matrix(1,0,0,1,0,0)"></rect><rect width="28" height="28" x="666" y="190" opacity="1" fill="#000000" transform="matrix(1,0,0,1,0,0)"></rect><rect width="28" height="28" x="694" y="190" opacity="1" fill="#000000" transform="matrix(1,0,0,1,0,0)"></rect><rect width="28" height="28" x="302" y="246" opacity="1" fill="#000000" transform="matrix(1,0,0,1,0,0)"></rect><rect width="28" height="28" x="358" y="246" opacity="1" fill="#000000" transform="matrix(1,0,0,1,0,0)"></rect><rect width="28" height="28" x="442" y="246" opacity="1" fill="#000000" transform="matrix(1,0,0,1,0,0)"></rect><rect width="28" height="28" x="470" y="246" opacity="1" fill="#000000" transform="matrix(1,0,0,1,0,0)"></rect><rect width="28" height="28" x="498" y="246" opacity="1" fill="#000000" transform="matrix(1,0,0,1,0,0)"></rect><rect width="28" height="28" x="526" y="246" opacity="1" fill="#000000" transform="matrix(1,0,0,1,0,0)"></rect><rect width="28" height="28" x="610" y="246" opacity="1" fill="#000000" transform="matrix(1,0,0,1,0,0)"></rect><rect width="28" height="28" x="666" y="246" opacity="1" fill="#000000" transform="matrix(1,0,0,1,0,0)"></rect><rect width="28" height="28" x="694" y="246" opacity="1" fill="#000000" transform="matrix(1,0,0,1,0,0)"></rect><rect width="28" height="28" x="722" y="246" opacity="1" fill="#000000" transform="matrix(1,0,0,1,0,0)"></rect><rect width="28" height="28" x="134" y="274" opacity="1" fill="#000000" transform="matrix(1,0,0,1,0,0)"></rect><rect width="28" height="28" x="302" y="274" opacity="1" fill="#000000" transform="matrix(1,0,0,1,0,0)"></rect><rect width="28" height="28" x="330" y="274" opacity="1" fill="#000000" transform="matrix(1,0,0,1,0,0)"></rect><rect width="28" height="28" x="442" y="274" opacity="1" fill="#000000" transform="matrix(1,0,0,1,0,0)"></rect><rect width="28" height="28" x="498" y="274" opacity="1" fill="#000000" transform="matrix(1,0,0,1,0,0)"></rect><rect width="28" height="28" x="526" y="274" opacity="1" fill="#000000" transform="matrix(1,0,0,1,0,0)"></rect><rect width="28" height="28" x="582" y="274" opacity="1" fill="#000000" transform="matrix(1,0,0,1,0,0)"></rect><rect width="28" height="28" x="722" y="274" opacity="1" fill="#000000" transform="matrix(1,0,0,1,0,0)"></rect><rect width="28" height="28" x="862" y="274" opacity="1" fill="#000000" transform="matrix(1,0,0,1,0,0)"></rect><rect width="28" height="28" x="890" y="274" opacity="1" fill="#000000" transform="matrix(1,0,0,1,0,0)"></rect><rect width="28" height="28" x="78" y="302" opacity="1" fill="#000000" transform="matrix(1,0,0,1,0,0)"></rect><rect width="28" height="28" x="246" y="302" opacity="1" fill="#000000" transform="matrix(1,0,0,1,0,0)"></rect><rect width="28" height="28" x="358" y="302" opacity="1" fill="#000000" transform="matrix(1,0,0,1,0,0)"></rect><rect width="28" height="28" x="386" y="302" opacity="1" fill="#000000" transform="matrix(1,0,0,1,0,0)"></rect><rect width="28" height="28" x="414" y="302" opacity="1" fill="#000000" transform="matrix(1,0,0,1,0,0)"></rect><rect width="28" height="28" x="582" y="302" opacity="1" fill="#000000" transform="matrix(1,0,0,1,0,0)"></rect><rect width="28" height="28" x="610" y="302" opacity="1" fill="#000000" transform="matrix(1,0,0,1,0,0)"></rect><rect width="28" height="28" x="638" y="302" opacity="1" fill="#000000" transform="matrix(1,0,0,1,0,0)"></rect><rect width="28" height="28" x="666" y="302" opacity="1" fill="#000000" transform="matrix(1,0,0,1,0,0)"></rect><rect width="28" height="28" x="694" y="302" opacity="1" fill="#000000" transform="matrix(1,0,0,1,0,0)"></rect><rect width="28" height="28" x="750" y="302" opacity="1" fill="#000000" transform="matrix(1,0,0,1,0,0)"></rect><rect width="28" height="28" x="806" y="302" opacity="1" fill="#000000" transform="matrix(1,0,0,1,0,0)"></rect><rect width="28" height="28" x="834" y="302" opacity="1" fill="#000000" transform="matrix(1,0,0,1,0,0)"></rect><rect width="28" height="28" x="862" y="302" opacity="1" fill="#000000" transform="matrix(1,0,0,1,0,0)"></rect><rect width="28" height="28" x="78" y="330" opacity="1" fill="#000000" transform="matrix(1,0,0,1,0,0)"></rect><rect width="28" height="28" x="106" y="330" opacity="1" fill="#000000" transform="matrix(1,0,0,1,0,0)"></rect><rect width="28" height="28" x="134" y="330" opacity="1" fill="#000000" transform="matrix(1,0,0,1,0,0)"></rect><rect width="28" height="28" x="246" y="330" opacity="1" fill="#000000" transform="matrix(1,0,0,1,0,0)"></rect><rect width="28" height="28" x="274" y="330" opacity="1" fill="#000000" transform="matrix(1,0,0,1,0,0)"></rect><rect width="28" height="28" x="330" y="330" opacity="1" fill="#000000" transform="matrix(1,0,0,1,0,0)"></rect><rect width="28" height="28" x="358" y="330" opacity="1" fill="#000000" transform="matrix(1,0,0,1,0,0)"></rect><rect width="28" height="28" x="414" y="330" opacity="1" fill="#000000" transform="matrix(1,0,0,1,0,0)"></rect><rect width="28" height="28" x="526" y="330" opacity="1" fill="#000000" transform="matrix(1,0,0,1,0,0)"></rect><rect width="28" height="28" x="582" y="330" opacity="1" fill="#000000" transform="matrix(1,0,0,1,0,0)"></rect><rect width="28" height="28" x="638" y="330" opacity="1" fill="#000000" transform="matrix(1,0,0,1,0,0)"></rect><rect width="28" height="28" x="694" y="330" opacity="1" fill="#000000" transform="matrix(1,0,0,1,0,0)"></rect><rect width="28" height="28" x="722" y="330" opacity="1" fill="#000000" transform="matrix(1,0,0,1,0,0)"></rect><rect width="28" height="28" x="806" y="330" opacity="1" fill="#000000" transform="matrix(1,0,0,1,0,0)"></rect><rect width="28" height="28" x="890" y="330" opacity="1" fill="#000000" transform="matrix(1,0,0,1,0,0)"></rect><rect width="28" height="28" x="918" y="330" opacity="1" fill="#000000" transform="matrix(1,0,0,1,0,0)"></rect><rect width="28" height="28" x="946" y="330" opacity="1" fill="#000000" transform="matrix(1,0,0,1,0,0)"></rect><rect width="28" height="28" x="50" y="358" opacity="1" fill="#000000" transform="matrix(1,0,0,1,0,0)"></rect><rect width="28" height="28" x="78" y="358" opacity="1" fill="#000000" transform="matrix(1,0,0,1,0,0)"></rect><rect width="28" height="28" x="106" y="358" opacity="1" fill="#000000" transform="matrix(1,0,0,1,0,0)"></rect><rect width="28" height="28" x="134" y="358" opacity="1" fill="#000000" transform="matrix(1,0,0,1,0,0)"></rect><rect width="28" height="28" x="246" y="358" opacity="1" fill="#000000" transform="matrix(1,0,0,1,0,0)"></rect><rect width="28" height="28" x="274" y="358" opacity="1" fill="#000000" transform="matrix(1,0,0,1,0,0)"></rect><rect width="28" height="28" x="302" y="358" opacity="1" fill="#000000" transform="matrix(1,0,0,1,0,0)"></rect><rect width="28" height="28" x="330" y="358" opacity="1" fill="#000000" transform="matrix(1,0,0,1,0,0)"></rect><rect width="28" height="28" x="414" y="358" opacity="1" fill="#000000" transform="matrix(1,0,0,1,0,0)"></rect><rect width="28" height="28" x="442" y="358" opacity="1" fill="#000000" transform="matrix(1,0,0,1,0,0)"></rect><rect width="28" height="28" x="470" y="358" opacity="1" fill="#000000" transform="matrix(1,0,0,1,0,0)"></rect><rect width="28" height="28" x="582" y="358" opacity="1" fill="#000000" transform="matrix(1,0,0,1,0,0)"></rect><rect width="28" height="28" x="722" y="358" opacity="1" fill="#000000" transform="matrix(1,0,0,1,0,0)"></rect><rect width="28" height="28" x="806" y="358" opacity="1" fill="#000000" transform="matrix(1,0,0,1,0,0)"></rect><rect width="28" height="28" x="834" y="358" opacity="1" fill="#000000" transform="matrix(1,0,0,1,0,0)"></rect><rect width="28" height="28" x="862" y="358" opacity="1" fill="#000000" transform="matrix(1,0,0,1,0,0)"></rect><rect width="28" height="28" x="890" y="358" opacity="1" fill="#000000" transform="matrix(1,0,0,1,0,0)"></rect><rect width="28" height="28" x="918" y="358" opacity="1" fill="#000000" transform="matrix(1,0,0,1,0,0)"></rect><rect width="28" height="28" x="946" y="358" opacity="1" fill="#000000" transform="matrix(1,0,0,1,0,0)"></rect><rect width="28" height="28" x="50" y="386" opacity="1" fill="#000000" transform="matrix(1,0,0,1,0,0)"></rect><rect width="28" height="28" x="162" y="386" opacity="1" fill="#000000" transform="matrix(1,0,0,1,0,0)"></rect><rect width="28" height="28" x="246" y="386" opacity="1" fill="#000000" transform="matrix(1,0,0,1,0,0)"></rect><rect width="28" height="28" x="274" y="386" opacity="1" fill="#000000" transform="matrix(1,0,0,1,0,0)"></rect><rect width="28" height="28" x="330" y="386" opacity="1" fill="#000000" transform="matrix(1,0,0,1,0,0)"></rect><rect width="28" height="28" x="554" y="386" opacity="1" fill="#000000" transform="matrix(1,0,0,1,0,0)"></rect><rect width="28" height="28" x="694" y="386" opacity="1" fill="#000000" transform="matrix(1,0,0,1,0,0)"></rect><rect width="28" height="28" x="722" y="386" opacity="1" fill="#000000" transform="matrix(1,0,0,1,0,0)"></rect><rect width="28" height="28" x="778" y="386" opacity="1" fill="#000000" transform="matrix(1,0,0,1,0,0)"></rect><rect width="28" height="28" x="862" y="386" opacity="1" fill="#000000" transform="matrix(1,0,0,1,0,0)"></rect><rect width="28" height="28" x="946" y="386" opacity="1" fill="#000000" transform="matrix(1,0,0,1,0,0)"></rect><rect width="28" height="28" x="50" y="414" opacity="1" fill="#000000" transform="matrix(1,0,0,1,0,0)"></rect><rect width="28" height="28" x="78" y="414" opacity="1" fill="#000000" transform="matrix(1,0,0,1,0,0)"></rect><rect width="28" height="28" x="134" y="414" opacity="1" fill="#000000" transform="matrix(1,0,0,1,0,0)"></rect><rect width="28" height="28" x="246" y="414" opacity="1" fill="#000000" transform="matrix(1,0,0,1,0,0)"></rect><rect width="28" height="28" x="274" y="414" opacity="1" fill="#000000" transform="matrix(1,0,0,1,0,0)"></rect><rect width="28" height="28" x="302" y="414" opacity="1" fill="#000000" transform="matrix(1,0,0,1,0,0)"></rect><rect width="28" height="28" x="358" y="414" opacity="1" fill="#000000" transform="matrix(1,0,0,1,0,0)"></rect><rect width="28" height="28" x="414" y="414" opacity="1" fill="#000000" transform="matrix(1,0,0,1,0,0)"></rect><rect width="28" height="28" x="442" y="414" opacity="1" fill="#000000" transform="matrix(1,0,0,1,0,0)"></rect><rect width="28" height="28" x="470" y="414" opacity="1" fill="#000000" transform="matrix(1,0,0,1,0,0)"></rect><rect width="28" height="28" x="498" y="414" opacity="1" fill="#000000" transform="matrix(1,0,0,1,0,0)"></rect><rect width="28" height="28" x="582" y="414" opacity="1" fill="#000000" transform="matrix(1,0,0,1,0,0)"></rect><rect width="28" height="28" x="638" y="414" opacity="1" fill="#000000" transform="matrix(1,0,0,1,0,0)"></rect><rect width="28" height="28" x="694" y="414" opacity="1" fill="#000000" transform="matrix(1,0,0,1,0,0)"></rect><rect width="28" height="28" x="722" y="414" opacity="1" fill="#000000" transform="matrix(1,0,0,1,0,0)"></rect><rect width="28" height="28" x="806" y="414" opacity="1" fill="#000000" transform="matrix(1,0,0,1,0,0)"></rect><rect width="28" height="28" x="890" y="414" opacity="1" fill="#000000" transform="matrix(1,0,0,1,0,0)"></rect><rect width="28" height="28" x="918" y="414" opacity="1" fill="#000000" transform="matrix(1,0,0,1,0,0)"></rect><rect width="28" height="28" x="78" y="442" opacity="1" fill="#000000" transform="matrix(1,0,0,1,0,0)"></rect><rect width="28" height="28" x="106" y="442" opacity="1" fill="#000000" transform="matrix(1,0,0,1,0,0)"></rect><rect width="28" height="28" x="134" y="442" opacity="1" fill="#000000" transform="matrix(1,0,0,1,0,0)"></rect><rect width="28" height="28" x="190" y="442" opacity="1" fill="#000000" transform="matrix(1,0,0,1,0,0)"></rect><rect width="28" height="28" x="358" y="442" opacity="1" fill="#000000" transform="matrix(1,0,0,1,0,0)"></rect><rect width="28" height="28" x="414" y="442" opacity="1" fill="#000000" transform="matrix(1,0,0,1,0,0)"></rect><rect width="28" height="28" x="722" y="442" opacity="1" fill="#000000" transform="matrix(1,0,0,1,0,0)"></rect><rect width="28" height="28" x="750" y="442" opacity="1" fill="#000000" transform="matrix(1,0,0,1,0,0)"></rect><rect width="28" height="28" x="778" y="442" opacity="1" fill="#000000" transform="matrix(1,0,0,1,0,0)"></rect><rect width="28" height="28" x="806" y="442" opacity="1" fill="#000000" transform="matrix(1,0,0,1,0,0)"></rect><rect width="28" height="28" x="862" y="442" opacity="1" fill="#000000" transform="matrix(1,0,0,1,0,0)"></rect><rect width="28" height="28" x="890" y="442" opacity="1" fill="#000000" transform="matrix(1,0,0,1,0,0)"></rect><rect width="28" height="28" x="78" y="470" opacity="1" fill="#000000" transform="matrix(1,0,0,1,0,0)"></rect><rect width="28" height="28" x="106" y="470" opacity="1" fill="#000000" transform="matrix(1,0,0,1,0,0)"></rect><rect width="28" height="28" x="162" y="470" opacity="1" fill="#000000" transform="matrix(1,0,0,1,0,0)"></rect><rect width="28" height="28" x="190" y="470" opacity="1" fill="#000000" transform="matrix(1,0,0,1,0,0)"></rect><rect width="28" height="28" x="274" y="470" opacity="1" fill="#000000" transform="matrix(1,0,0,1,0,0)"></rect><rect width="28" height="28" x="302" y="470" opacity="1" fill="#000000" transform="matrix(1,0,0,1,0,0)"></rect><rect width="28" height="28" x="358" y="470" opacity="1" fill="#000000" transform="matrix(1,0,0,1,0,0)"></rect><rect width="28" height="28" x="414" y="470" opacity="1" fill="#000000" transform="matrix(1,0,0,1,0,0)"></rect><rect width="28" height="28" x="442" y="470" opacity="1" fill="#000000" transform="matrix(1,0,0,1,0,0)"></rect><rect width="28" height="28" x="498" y="470" opacity="1" fill="#000000" transform="matrix(1,0,0,1,0,0)"></rect><rect width="28" height="28" x="554" y="470" opacity="1" fill="#000000" transform="matrix(1,0,0,1,0,0)"></rect><rect width="28" height="28" x="582" y="470" opacity="1" fill="#000000" transform="matrix(1,0,0,1,0,0)"></rect><rect width="28" height="28" x="694" y="470" opacity="1" fill="#000000" transform="matrix(1,0,0,1,0,0)"></rect><rect width="28" height="28" x="722" y="470" opacity="1" fill="#000000" transform="matrix(1,0,0,1,0,0)"></rect><rect width="28" height="28" x="834" y="470" opacity="1" fill="#000000" transform="matrix(1,0,0,1,0,0)"></rect><rect width="28" height="28" x="862" y="470" opacity="1" fill="#000000" transform="matrix(1,0,0,1,0,0)"></rect><rect width="28" height="28" x="890" y="470" opacity="1" fill="#000000" transform="matrix(1,0,0,1,0,0)"></rect><rect width="28" height="28" x="106" y="498" opacity="1" fill="#000000" transform="matrix(1,0,0,1,0,0)"></rect><rect width="28" height="28" x="246" y="498" opacity="1" fill="#000000" transform="matrix(1,0,0,1,0,0)"></rect><rect width="28" height="28" x="302" y="498" opacity="1" fill="#000000" transform="matrix(1,0,0,1,0,0)"></rect><rect width="28" height="28" x="330" y="498" opacity="1" fill="#000000" transform="matrix(1,0,0,1,0,0)"></rect><rect width="28" height="28" x="358" y="498" opacity="1" fill="#000000" transform="matrix(1,0,0,1,0,0)"></rect><rect width="28" height="28" x="386" y="498" opacity="1" fill="#000000" transform="matrix(1,0,0,1,0,0)"></rect><rect width="28" height="28" x="414" y="498" opacity="1" fill="#000000" transform="matrix(1,0,0,1,0,0)"></rect><rect width="28" height="28" x="442" y="498" opacity="1" fill="#000000" transform="matrix(1,0,0,1,0,0)"></rect><rect width="28" height="28" x="470" y="498" opacity="1" fill="#000000" transform="matrix(1,0,0,1,0,0)"></rect><rect width="28" height="28" x="498" y="498" opacity="1" fill="#000000" transform="matrix(1,0,0,1,0,0)"></rect><rect width="28" height="28" x="554" y="498" opacity="1" fill="#000000" transform="matrix(1,0,0,1,0,0)"></rect><rect width="28" height="28" x="582" y="498" opacity="1" fill="#000000" transform="matrix(1,0,0,1,0,0)"></rect><rect width="28" height="28" x="610" y="498" opacity="1" fill="#000000" transform="matrix(1,0,0,1,0,0)"></rect><rect width="28" height="28" x="694" y="498" opacity="1" fill="#000000" transform="matrix(1,0,0,1,0,0)"></rect><rect width="28" height="28" x="750" y="498" opacity="1" fill="#000000" transform="matrix(1,0,0,1,0,0)"></rect><rect width="28" height="28" x="778" y="498" opacity="1" fill="#000000" transform="matrix(1,0,0,1,0,0)"></rect><rect width="28" height="28" x="834" y="498" opacity="1" fill="#000000" transform="matrix(1,0,0,1,0,0)"></rect><rect width="28" height="28" x="862" y="498" opacity="1" fill="#000000" transform="matrix(1,0,0,1,0,0)"></rect><rect width="28" height="28" x="946" y="498" opacity="1" fill="#000000" transform="matrix(1,0,0,1,0,0)"></rect><rect width="28" height="28" x="50" y="526" opacity="1" fill="#000000" transform="matrix(1,0,0,1,0,0)"></rect><rect width="28" height="28" x="78" y="526" opacity="1" fill="#000000" transform="matrix(1,0,0,1,0,0)"></rect><rect width="28" height="28" x="134" y="526" opacity="1" fill="#000000" transform="matrix(1,0,0,1,0,0)"></rect><rect width="28" height="28" x="162" y="526" opacity="1" fill="#000000" transform="matrix(1,0,0,1,0,0)"></rect><rect width="28" height="28" x="246" y="526" opacity="1" fill="#000000" transform="matrix(1,0,0,1,0,0)"></rect><rect width="28" height="28" x="330" y="526" opacity="1" fill="#000000" transform="matrix(1,0,0,1,0,0)"></rect><rect width="28" height="28" x="414" y="526" opacity="1" fill="#000000" transform="matrix(1,0,0,1,0,0)"></rect><rect width="28" height="28" x="470" y="526" opacity="1" fill="#000000" transform="matrix(1,0,0,1,0,0)"></rect><rect width="28" height="28" x="498" y="526" opacity="1" fill="#000000" transform="matrix(1,0,0,1,0,0)"></rect><rect width="28" height="28" x="554" y="526" opacity="1" fill="#000000" transform="matrix(1,0,0,1,0,0)"></rect><rect width="28" height="28" x="582" y="526" opacity="1" fill="#000000" transform="matrix(1,0,0,1,0,0)"></rect><rect width="28" height="28" x="666" y="526" opacity="1" fill="#000000" transform="matrix(1,0,0,1,0,0)"></rect><rect width="28" height="28" x="722" y="526" opacity="1" fill="#000000" transform="matrix(1,0,0,1,0,0)"></rect><rect width="28" height="28" x="778" y="526" opacity="1" fill="#000000" transform="matrix(1,0,0,1,0,0)"></rect><rect width="28" height="28" x="806" y="526" opacity="1" fill="#000000" transform="matrix(1,0,0,1,0,0)"></rect><rect width="28" height="28" x="834" y="526" opacity="1" fill="#000000" transform="matrix(1,0,0,1,0,0)"></rect><rect width="28" height="28" x="862" y="526" opacity="1" fill="#000000" transform="matrix(1,0,0,1,0,0)"></rect><rect width="28" height="28" x="50" y="554" opacity="1" fill="#000000" transform="matrix(1,0,0,1,0,0)"></rect><rect width="28" height="28" x="78" y="554" opacity="1" fill="#000000" transform="matrix(1,0,0,1,0,0)"></rect><rect width="28" height="28" x="134" y="554" opacity="1" fill="#000000" transform="matrix(1,0,0,1,0,0)"></rect><rect width="28" height="28" x="246" y="554" opacity="1" fill="#000000" transform="matrix(1,0,0,1,0,0)"></rect><rect width="28" height="28" x="302" y="554" opacity="1" fill="#000000" transform="matrix(1,0,0,1,0,0)"></rect><rect width="28" height="28" x="414" y="554" opacity="1" fill="#000000" transform="matrix(1,0,0,1,0,0)"></rect><rect width="28" height="28" x="442" y="554" opacity="1" fill="#000000" transform="matrix(1,0,0,1,0,0)"></rect><rect width="28" height="28" x="526" y="554" opacity="1" fill="#000000" transform="matrix(1,0,0,1,0,0)"></rect><rect width="28" height="28" x="554" y="554" opacity="1" fill="#000000" transform="matrix(1,0,0,1,0,0)"></rect><rect width="28" height="28" x="666" y="554" opacity="1" fill="#000000" transform="matrix(1,0,0,1,0,0)"></rect><rect width="28" height="28" x="694" y="554" opacity="1" fill="#000000" transform="matrix(1,0,0,1,0,0)"></rect><rect width="28" height="28" x="750" y="554" opacity="1" fill="#000000" transform="matrix(1,0,0,1,0,0)"></rect><rect width="28" height="28" x="778" y="554" opacity="1" fill="#000000" transform="matrix(1,0,0,1,0,0)"></rect><rect width="28" height="28" x="834" y="554" opacity="1" fill="#000000" transform="matrix(1,0,0,1,0,0)"></rect><rect width="28" height="28" x="862" y="554" opacity="1" fill="#000000" transform="matrix(1,0,0,1,0,0)"></rect><rect width="28" height="28" x="890" y="554" opacity="1" fill="#000000" transform="matrix(1,0,0,1,0,0)"></rect><rect width="28" height="28" x="946" y="554" opacity="1" fill="#000000" transform="matrix(1,0,0,1,0,0)"></rect><rect width="28" height="28" x="134" y="582" opacity="1" fill="#000000" transform="matrix(1,0,0,1,0,0)"></rect><rect width="28" height="28" x="162" y="582" opacity="1" fill="#000000" transform="matrix(1,0,0,1,0,0)"></rect><rect width="28" height="28" x="274" y="582" opacity="1" fill="#000000" transform="matrix(1,0,0,1,0,0)"></rect><rect width="28" height="28" x="386" y="582" opacity="1" fill="#000000" transform="matrix(1,0,0,1,0,0)"></rect><rect width="28" height="28" x="414" y="582" opacity="1" fill="#000000" transform="matrix(1,0,0,1,0,0)"></rect><rect width="28" height="28" x="442" y="582" opacity="1" fill="#000000" transform="matrix(1,0,0,1,0,0)"></rect><rect width="28" height="28" x="526" y="582" opacity="1" fill="#000000" transform="matrix(1,0,0,1,0,0)"></rect><rect width="28" height="28" x="582" y="582" opacity="1" fill="#000000" transform="matrix(1,0,0,1,0,0)"></rect><rect width="28" height="28" x="610" y="582" opacity="1" fill="#000000" transform="matrix(1,0,0,1,0,0)"></rect><rect width="28" height="28" x="666" y="582" opacity="1" fill="#000000" transform="matrix(1,0,0,1,0,0)"></rect><rect width="28" height="28" x="694" y="582" opacity="1" fill="#000000" transform="matrix(1,0,0,1,0,0)"></rect><rect width="28" height="28" x="722" y="582" opacity="1" fill="#000000" transform="matrix(1,0,0,1,0,0)"></rect><rect width="28" height="28" x="750" y="582" opacity="1" fill="#000000" transform="matrix(1,0,0,1,0,0)"></rect><rect width="28" height="28" x="834" y="582" opacity="1" fill="#000000" transform="matrix(1,0,0,1,0,0)"></rect><rect width="28" height="28" x="862" y="582" opacity="1" fill="#000000" transform="matrix(1,0,0,1,0,0)"></rect><rect width="28" height="28" x="890" y="582" opacity="1" fill="#000000" transform="matrix(1,0,0,1,0,0)"></rect><rect width="28" height="28" x="50" y="610" opacity="1" fill="#000000" transform="matrix(1,0,0,1,0,0)"></rect><rect width="28" height="28" x="106" y="610" opacity="1" fill="#000000" transform="matrix(1,0,0,1,0,0)"></rect><rect width="28" height="28" x="190" y="610" opacity="1" fill="#000000" transform="matrix(1,0,0,1,0,0)"></rect><rect width="28" height="28" x="246" y="610" opacity="1" fill="#000000" transform="matrix(1,0,0,1,0,0)"></rect><rect width="28" height="28" x="330" y="610" opacity="1" fill="#000000" transform="matrix(1,0,0,1,0,0)"></rect><rect width="28" height="28" x="386" y="610" opacity="1" fill="#000000" transform="matrix(1,0,0,1,0,0)"></rect><rect width="28" height="28" x="526" y="610" opacity="1" fill="#000000" transform="matrix(1,0,0,1,0,0)"></rect><rect width="28" height="28" x="554" y="610" opacity="1" fill="#000000" transform="matrix(1,0,0,1,0,0)"></rect><rect width="28" height="28" x="610" y="610" opacity="1" fill="#000000" transform="matrix(1,0,0,1,0,0)"></rect><rect width="28" height="28" x="806" y="610" opacity="1" fill="#000000" transform="matrix(1,0,0,1,0,0)"></rect><rect width="28" height="28" x="862" y="610" opacity="1" fill="#000000" transform="matrix(1,0,0,1,0,0)"></rect><rect width="28" height="28" x="946" y="610" opacity="1" fill="#000000" transform="matrix(1,0,0,1,0,0)"></rect><rect width="28" height="28" x="50" y="638" opacity="1" fill="#000000" transform="matrix(1,0,0,1,0,0)"></rect><rect width="28" height="28" x="134" y="638" opacity="1" fill="#000000" transform="matrix(1,0,0,1,0,0)"></rect><rect width="28" height="28" x="190" y="638" opacity="1" fill="#000000" transform="matrix(1,0,0,1,0,0)"></rect><rect width="28" height="28" x="330" y="638" opacity="1" fill="#000000" transform="matrix(1,0,0,1,0,0)"></rect><rect width="28" height="28" x="358" y="638" opacity="1" fill="#000000" transform="matrix(1,0,0,1,0,0)"></rect><rect width="28" height="28" x="470" y="638" opacity="1" fill="#000000" transform="matrix(1,0,0,1,0,0)"></rect><rect width="28" height="28" x="526" y="638" opacity="1" fill="#000000" transform="matrix(1,0,0,1,0,0)"></rect><rect width="28" height="28" x="638" y="638" opacity="1" fill="#000000" transform="matrix(1,0,0,1,0,0)"></rect><rect width="28" height="28" x="666" y="638" opacity="1" fill="#000000" transform="matrix(1,0,0,1,0,0)"></rect><rect width="28" height="28" x="694" y="638" opacity="1" fill="#000000" transform="matrix(1,0,0,1,0,0)"></rect><rect width="28" height="28" x="806" y="638" opacity="1" fill="#000000" transform="matrix(1,0,0,1,0,0)"></rect><rect width="28" height="28" x="834" y="638" opacity="1" fill="#000000" transform="matrix(1,0,0,1,0,0)"></rect><rect width="28" height="28" x="50" y="666" opacity="1" fill="#000000" transform="matrix(1,0,0,1,0,0)"></rect><rect width="28" height="28" x="190" y="666" opacity="1" fill="#000000" transform="matrix(1,0,0,1,0,0)"></rect><rect width="28" height="28" x="274" y="666" opacity="1" fill="#000000" transform="matrix(1,0,0,1,0,0)"></rect><rect width="28" height="28" x="358" y="666" opacity="1" fill="#000000" transform="matrix(1,0,0,1,0,0)"></rect><rect width="28" height="28" x="386" y="666" opacity="1" fill="#000000" transform="matrix(1,0,0,1,0,0)"></rect><rect width="28" height="28" x="498" y="666" opacity="1" fill="#000000" transform="matrix(1,0,0,1,0,0)"></rect><rect width="28" height="28" x="554" y="666" opacity="1" fill="#000000" transform="matrix(1,0,0,1,0,0)"></rect><rect width="28" height="28" x="638" y="666" opacity="1" fill="#000000" transform="matrix(1,0,0,1,0,0)"></rect><rect width="28" height="28" x="666" y="666" opacity="1" fill="#000000" transform="matrix(1,0,0,1,0,0)"></rect><rect width="28" height="28" x="694" y="666" opacity="1" fill="#000000" transform="matrix(1,0,0,1,0,0)"></rect><rect width="28" height="28" x="778" y="666" opacity="1" fill="#000000" transform="matrix(1,0,0,1,0,0)"></rect><rect width="28" height="28" x="806" y="666" opacity="1" fill="#000000" transform="matrix(1,0,0,1,0,0)"></rect><rect width="28" height="28" x="890" y="666" opacity="1" fill="#000000" transform="matrix(1,0,0,1,0,0)"></rect><rect width="28" height="28" x="918" y="666" opacity="1" fill="#000000" transform="matrix(1,0,0,1,0,0)"></rect><rect width="28" height="28" x="946" y="666" opacity="1" fill="#000000" transform="matrix(1,0,0,1,0,0)"></rect><rect width="28" height="28" x="50" y="694" opacity="1" fill="#000000" transform="matrix(1,0,0,1,0,0)"></rect><rect width="28" height="28" x="106" y="694" opacity="1" fill="#000000" transform="matrix(1,0,0,1,0,0)"></rect><rect width="28" height="28" x="162" y="694" opacity="1" fill="#000000" transform="matrix(1,0,0,1,0,0)"></rect><rect width="28" height="28" x="274" y="694" opacity="1" fill="#000000" transform="matrix(1,0,0,1,0,0)"></rect><rect width="28" height="28" x="302" y="694" opacity="1" fill="#000000" transform="matrix(1,0,0,1,0,0)"></rect><rect width="28" height="28" x="414" y="694" opacity="1" fill="#000000" transform="matrix(1,0,0,1,0,0)"></rect><rect width="28" height="28" x="442" y="694" opacity="1" fill="#000000" transform="matrix(1,0,0,1,0,0)"></rect><rect width="28" height="28" x="498" y="694" opacity="1" fill="#000000" transform="matrix(1,0,0,1,0,0)"></rect><rect width="28" height="28" x="610" y="694" opacity="1" fill="#000000" transform="matrix(1,0,0,1,0,0)"></rect><rect width="28" height="28" x="806" y="694" opacity="1" fill="#000000" transform="matrix(1,0,0,1,0,0)"></rect><rect width="28" height="28" x="834" y="694" opacity="1" fill="#000000" transform="matrix(1,0,0,1,0,0)"></rect><rect width="28" height="28" x="890" y="694" opacity="1" fill="#000000" transform="matrix(1,0,0,1,0,0)"></rect><rect width="28" height="28" x="918" y="694" opacity="1" fill="#000000" transform="matrix(1,0,0,1,0,0)"></rect><rect width="28" height="28" x="946" y="694" opacity="1" fill="#000000" transform="matrix(1,0,0,1,0,0)"></rect><rect width="28" height="28" x="50" y="722" opacity="1" fill="#000000" transform="matrix(1,0,0,1,0,0)"></rect><rect width="28" height="28" x="78" y="722" opacity="1" fill="#000000" transform="matrix(1,0,0,1,0,0)"></rect><rect width="28" height="28" x="106" y="722" opacity="1" fill="#000000" transform="matrix(1,0,0,1,0,0)"></rect><rect width="28" height="28" x="162" y="722" opacity="1" fill="#000000" transform="matrix(1,0,0,1,0,0)"></rect><rect width="28" height="28" x="190" y="722" opacity="1" fill="#000000" transform="matrix(1,0,0,1,0,0)"></rect><rect width="28" height="28" x="302" y="722" opacity="1" fill="#000000" transform="matrix(1,0,0,1,0,0)"></rect><rect width="28" height="28" x="330" y="722" opacity="1" fill="#000000" transform="matrix(1,0,0,1,0,0)"></rect><rect width="28" height="28" x="358" y="722" opacity="1" fill="#000000" transform="matrix(1,0,0,1,0,0)"></rect><rect width="28" height="28" x="386" y="722" opacity="1" fill="#000000" transform="matrix(1,0,0,1,0,0)"></rect><rect width="28" height="28" x="470" y="722" opacity="1" fill="#000000" transform="matrix(1,0,0,1,0,0)"></rect><rect width="28" height="28" x="498" y="722" opacity="1" fill="#000000" transform="matrix(1,0,0,1,0,0)"></rect><rect width="28" height="28" x="526" y="722" opacity="1" fill="#000000" transform="matrix(1,0,0,1,0,0)"></rect><rect width="28" height="28" x="666" y="722" opacity="1" fill="#000000" transform="matrix(1,0,0,1,0,0)"></rect><rect width="28" height="28" x="274" y="750" opacity="1" fill="#000000" transform="matrix(1,0,0,1,0,0)"></rect><rect width="28" height="28" x="302" y="750" opacity="1" fill="#000000" transform="matrix(1,0,0,1,0,0)"></rect><rect width="28" height="28" x="330" y="750" opacity="1" fill="#000000" transform="matrix(1,0,0,1,0,0)"></rect><rect width="28" height="28" x="358" y="750" opacity="1" fill="#000000" transform="matrix(1,0,0,1,0,0)"></rect><rect width="28" height="28" x="386" y="750" opacity="1" fill="#000000" transform="matrix(1,0,0,1,0,0)"></rect><rect width="28" height="28" x="582" y="750" opacity="1" fill="#000000" transform="matrix(1,0,0,1,0,0)"></rect><rect width="28" height="28" x="610" y="750" opacity="1" fill="#000000" transform="matrix(1,0,0,1,0,0)"></rect><rect width="28" height="28" x="694" y="750" opacity="1" fill="#000000" transform="matrix(1,0,0,1,0,0)"></rect><rect width="28" height="28" x="862" y="750" opacity="1" fill="#000000" transform="matrix(1,0,0,1,0,0)"></rect><rect width="28" height="28" x="918" y="750" opacity="1" fill="#000000" transform="matrix(1,0,0,1,0,0)"></rect><rect width="28" height="28" x="274" y="778" opacity="1" fill="#000000" transform="matrix(1,0,0,1,0,0)"></rect><rect width="28" height="28" x="302" y="778" opacity="1" fill="#000000" transform="matrix(1,0,0,1,0,0)"></rect><rect width="28" height="28" x="386" y="778" opacity="1" fill="#000000" transform="matrix(1,0,0,1,0,0)"></rect><rect width="28" height="28" x="526" y="778" opacity="1" fill="#000000" transform="matrix(1,0,0,1,0,0)"></rect><rect width="28" height="28" x="554" y="778" opacity="1" fill="#000000" transform="matrix(1,0,0,1,0,0)"></rect><rect width="28" height="28" x="610" y="778" opacity="1" fill="#000000" transform="matrix(1,0,0,1,0,0)"></rect><rect width="28" height="28" x="638" y="778" opacity="1" fill="#000000" transform="matrix(1,0,0,1,0,0)"></rect><rect width="28" height="28" x="666" y="778" opacity="1" fill="#000000" transform="matrix(1,0,0,1,0,0)"></rect><rect width="28" height="28" x="694" y="778" opacity="1" fill="#000000" transform="matrix(1,0,0,1,0,0)"></rect><rect width="28" height="28" x="862" y="778" opacity="1" fill="#000000" transform="matrix(1,0,0,1,0,0)"></rect><rect width="28" height="28" x="330" y="806" opacity="1" fill="#000000" transform="matrix(1,0,0,1,0,0)"></rect><rect width="28" height="28" x="414" y="806" opacity="1" fill="#000000" transform="matrix(1,0,0,1,0,0)"></rect><rect width="28" height="28" x="442" y="806" opacity="1" fill="#000000" transform="matrix(1,0,0,1,0,0)"></rect><rect width="28" height="28" x="498" y="806" opacity="1" fill="#000000" transform="matrix(1,0,0,1,0,0)"></rect><rect width="28" height="28" x="526" y="806" opacity="1" fill="#000000" transform="matrix(1,0,0,1,0,0)"></rect><rect width="28" height="28" x="554" y="806" opacity="1" fill="#000000" transform="matrix(1,0,0,1,0,0)"></rect><rect width="28" height="28" x="610" y="806" opacity="1" fill="#000000" transform="matrix(1,0,0,1,0,0)"></rect><rect width="28" height="28" x="694" y="806" opacity="1" fill="#000000" transform="matrix(1,0,0,1,0,0)"></rect><rect width="28" height="28" x="862" y="806" opacity="1" fill="#000000" transform="matrix(1,0,0,1,0,0)"></rect><rect width="28" height="28" x="890" y="806" opacity="1" fill="#000000" transform="matrix(1,0,0,1,0,0)"></rect><rect width="28" height="28" x="918" y="806" opacity="1" fill="#000000" transform="matrix(1,0,0,1,0,0)"></rect><rect width="28" height="28" x="274" y="834" opacity="1" fill="#000000" transform="matrix(1,0,0,1,0,0)"></rect><rect width="28" height="28" x="302" y="834" opacity="1" fill="#000000" transform="matrix(1,0,0,1,0,0)"></rect><rect width="28" height="28" x="330" y="834" opacity="1" fill="#000000" transform="matrix(1,0,0,1,0,0)"></rect><rect width="28" height="28" x="498" y="834" opacity="1" fill="#000000" transform="matrix(1,0,0,1,0,0)"></rect><rect width="28" height="28" x="582" y="834" opacity="1" fill="#000000" transform="matrix(1,0,0,1,0,0)"></rect><rect width="28" height="28" x="610" y="834" opacity="1" fill="#000000" transform="matrix(1,0,0,1,0,0)"></rect><rect width="28" height="28" x="638" y="834" opacity="1" fill="#000000" transform="matrix(1,0,0,1,0,0)"></rect><rect width="28" height="28" x="694" y="834" opacity="1" fill="#000000" transform="matrix(1,0,0,1,0,0)"></rect><rect width="28" height="28" x="862" y="834" opacity="1" fill="#000000" transform="matrix(1,0,0,1,0,0)"></rect><rect width="28" height="28" x="890" y="834" opacity="1" fill="#000000" transform="matrix(1,0,0,1,0,0)"></rect><rect width="28" height="28" x="918" y="834" opacity="1" fill="#000000" transform="matrix(1,0,0,1,0,0)"></rect><rect width="28" height="28" x="274" y="862" opacity="1" fill="#000000" transform="matrix(1,0,0,1,0,0)"></rect><rect width="28" height="28" x="302" y="862" opacity="1" fill="#000000" transform="matrix(1,0,0,1,0,0)"></rect><rect width="28" height="28" x="330" y="862" opacity="1" fill="#000000" transform="matrix(1,0,0,1,0,0)"></rect><rect width="28" height="28" x="386" y="862" opacity="1" fill="#000000" transform="matrix(1,0,0,1,0,0)"></rect><rect width="28" height="28" x="526" y="862" opacity="1" fill="#000000" transform="matrix(1,0,0,1,0,0)"></rect><rect width="28" height="28" x="582" y="862" opacity="1" fill="#000000" transform="matrix(1,0,0,1,0,0)"></rect><rect width="28" height="28" x="666" y="862" opacity="1" fill="#000000" transform="matrix(1,0,0,1,0,0)"></rect><rect width="28" height="28" x="722" y="862" opacity="1" fill="#000000" transform="matrix(1,0,0,1,0,0)"></rect><rect width="28" height="28" x="750" y="862" opacity="1" fill="#000000" transform="matrix(1,0,0,1,0,0)"></rect><rect width="28" height="28" x="806" y="862" opacity="1" fill="#000000" transform="matrix(1,0,0,1,0,0)"></rect><rect width="28" height="28" x="946" y="862" opacity="1" fill="#000000" transform="matrix(1,0,0,1,0,0)"></rect><rect width="28" height="28" x="358" y="890" opacity="1" fill="#000000" transform="matrix(1,0,0,1,0,0)"></rect><rect width="28" height="28" x="414" y="890" opacity="1" fill="#000000" transform="matrix(1,0,0,1,0,0)"></rect><rect width="28" height="28" x="442" y="890" opacity="1" fill="#000000" transform="matrix(1,0,0,1,0,0)"></rect><rect width="28" height="28" x="470" y="890" opacity="1" fill="#000000" transform="matrix(1,0,0,1,0,0)"></rect><rect width="28" height="28" x="582" y="890" opacity="1" fill="#000000" transform="matrix(1,0,0,1,0,0)"></rect><rect width="28" height="28" x="694" y="890" opacity="1" fill="#000000" transform="matrix(1,0,0,1,0,0)"></rect><rect width="28" height="28" x="834" y="890" opacity="1" fill="#000000" transform="matrix(1,0,0,1,0,0)"></rect><rect width="28" height="28" x="890" y="890" opacity="1" fill="#000000" transform="matrix(1,0,0,1,0,0)"></rect><rect width="28" height="28" x="918" y="890" opacity="1" fill="#000000" transform="matrix(1,0,0,1,0,0)"></rect><rect width="28" height="28" x="946" y="890" opacity="1" fill="#000000" transform="matrix(1,0,0,1,0,0)"></rect><rect width="28" height="28" x="302" y="918" opacity="1" fill="#000000" transform="matrix(1,0,0,1,0,0)"></rect><rect width="28" height="28" x="554" y="918" opacity="1" fill="#000000" transform="matrix(1,0,0,1,0,0)"></rect><rect width="28" height="28" x="778" y="918" opacity="1" fill="#000000" transform="matrix(1,0,0,1,0,0)"></rect><rect width="28" height="28" x="862" y="918" opacity="1" fill="#000000" transform="matrix(1,0,0,1,0,0)"></rect><rect width="28" height="28" x="890" y="918" opacity="1" fill="#000000" transform="matrix(1,0,0,1,0,0)"></rect><rect width="28" height="28" x="918" y="918" opacity="1" fill="#000000" transform="matrix(1,0,0,1,0,0)"></rect><rect width="28" height="28" x="946" y="918" opacity="1" fill="#000000" transform="matrix(1,0,0,1,0,0)"></rect><rect width="28" height="28" x="330" y="946" opacity="1" fill="#000000" transform="matrix(1,0,0,1,0,0)"></rect><rect width="28" height="28" x="358" y="946" opacity="1" fill="#000000" transform="matrix(1,0,0,1,0,0)"></rect><rect width="28" height="28" x="442" y="946" opacity="1" fill="#000000" transform="matrix(1,0,0,1,0,0)"></rect><rect width="28" height="28" x="470" y="946" opacity="1" fill="#000000" transform="matrix(1,0,0,1,0,0)"></rect><rect width="28" height="28" x="498" y="946" opacity="1" fill="#000000" transform="matrix(1,0,0,1,0,0)"></rect><rect width="28" height="28" x="554" y="946" opacity="1" fill="#000000" transform="matrix(1,0,0,1,0,0)"></rect><rect width="28" height="28" x="582" y="946" opacity="1" fill="#000000" transform="matrix(1,0,0,1,0,0)"></rect><rect width="28" height="28" x="694" y="946" opacity="1" fill="#000000" transform="matrix(1,0,0,1,0,0)"></rect><rect width="28" height="28" x="722" y="946" opacity="1" fill="#000000" transform="matrix(1,0,0,1,0,0)"></rect><rect width="28" height="28" x="834" y="946" opacity="1" fill="#000000" transform="matrix(1,0,0,1,0,0)"></rect><svg xmlns="http://www.w3.org/2000/svg" version="1.1" xmlns:xlink="http://www.w3.org/1999/xlink" xmlns:svgjs="http://svgjs.com/svgjs" width="196" height="196" viewBox="0 0 196 196" x="50" y="50"><path d="   M0 0 L196 0 L196 196 L0 196 L0 0 ZM28 28 L28 168 L168 168 L168 28 L28 28 Z" fill="#000000" stroke-width="10"></path></svg><svg xmlns="http://www.w3.org/2000/svg" version="1.1" xmlns:xlink="http://www.w3.org/1999/xlink" xmlns:svgjs="http://svgjs.com/svgjs" width="196" height="196" viewBox="0 0 196 196" x="778" y="50"><path d="   M0 0 L196 0 L196 196 L0 196 L0 0 ZM28 28 L28 168 L168 168 L168 28 L28 28 Z" fill="#000000" stroke-width="10"></path></svg><svg xmlns="http://www.w3.org/2000/svg" version="1.1" xmlns:xlink="http://www.w3.org/1999/xlink" xmlns:svgjs="http://svgjs.com/svgjs" width="196" height="196" viewBox="0 0 196 196" x="50" y="778"><path d="   M0 0 L196 0 L196 196 L0 196 L0 0 ZM28 28 L28 168 L168 168 L168 28 L28 28 Z" fill="#000000" stroke-width="10"></path></svg><svg xmlns="http://www.w3.org/2000/svg" version="1.1" xmlns:xlink="http://www.w3.org/1999/xlink" xmlns:svgjs="http://svgjs.com/svgjs" width="84" height="84" x="106" y="106"><rect width="84" height="84" fill="#000000"></rect></svg><svg xmlns="http://www.w3.org/2000/svg" version="1.1" xmlns:xlink="http://www.w3.org/1999/xlink" xmlns:svgjs="http://svgjs.com/svgjs" width="84" height="84" x="834" y="106"><rect width="84" height="84" fill="#000000"></rect></svg><svg xmlns="http://www.w3.org/2000/svg" version="1.1" xmlns:xlink="http://www.w3.org/1999/xlink" xmlns:svgjs="http://svgjs.com/svgjs" width="84" height="84" x="106" y="834"><rect width="84" height="84" fill="#000000"></rect></svg><rect width="28" height="28" x="274" y="218" opacity="1" fill="#000000" transform="matrix(1,0,0,1,0,0)"></rect><rect width="28" height="28" x="218" y="274" opacity="1" fill="#000000" transform="matrix(1,0,0,1,0,0)"></rect><rect width="28" height="28" x="330" y="218" opacity="1" fill="#000000" transform="matrix(1,0,0,1,0,0)"></rect><rect width="28" height="28" x="218" y="330" opacity="1" fill="#000000" transform="matrix(1,0,0,1,0,0)"></rect><rect width="28" height="28" x="386" y="218" opacity="1" fill="#000000" transform="matrix(1,0,0,1,0,0)"></rect><rect width="28" height="28" x="218" y="386" opacity="1" fill="#000000" transform="matrix(1,0,0,1,0,0)"></rect><rect width="28" height="28" x="442" y="218" opacity="1" fill="#000000" transform="matrix(1,0,0,1,0,0)"></rect><rect width="28" height="28" x="218" y="442" opacity="1" fill="#000000" transform="matrix(1,0,0,1,0,0)"></rect><rect width="28" height="28" x="498" y="218" opacity="1" fill="#000000" transform="matrix(1,0,0,1,0,0)"></rect><rect width="28" height="28" x="218" y="498" opacity="1" fill="#000000" transform="matrix(1,0,0,1,0,0)"></rect><rect width="28" height="28" x="554" y="218" opacity="1" fill="#000000" transform="matrix(1,0,0,1,0,0)"></rect><rect width="28" height="28" x="218" y="554" opacity="1" fill="#000000" transform="matrix(1,0,0,1,0,0)"></rect><rect width="28" height="28" x="610" y="218" opacity="1" fill="#000000" transform="matrix(1,0,0,1,0,0)"></rect><rect width="28" height="28" x="218" y="610" opacity="1" fill="#000000" transform="matrix(1,0,0,1,0,0)"></rect><rect width="28" height="28" x="666" y="218" opacity="1" fill="#000000" transform="matrix(1,0,0,1,0,0)"></rect><rect width="28" height="28" x="218" y="666" opacity="1" fill="#000000" transform="matrix(1,0,0,1,0,0)"></rect><rect width="28" height="28" x="722" y="218" opacity="1" fill="#000000" transform="matrix(1,0,0,1,0,0)"></rect><rect width="28" height="28" x="218" y="722" opacity="1" fill="#000000" transform="matrix(1,0,0,1,0,0)"></rect><rect width="28" height="28" x="722" y="722" opacity="1" fill="#000000" transform="matrix(1,0,0,1,0,0)"></rect><rect width="28" height="28" x="722" y="750" opacity="1" fill="#000000" transform="matrix(1,0,0,1,0,0)"></rect><rect width="28" height="28" x="722" y="778" opacity="1" fill="#000000" transform="matrix(1,0,0,1,0,0)"></rect><rect width="28" height="28" x="722" y="806" opacity="1" fill="#000000" transform="matrix(1,0,0,1,0,0)"></rect><rect width="28" height="28" x="834" y="750" opacity="1" fill="#000000" transform="matrix(1,0,0,1,0,0)"></rect><rect width="28" height="28" x="834" y="778" opacity="1" fill="#000000" transform="matrix(1,0,0,1,0,0)"></rect><rect width="28" height="28" x="834" y="806" opacity="1" fill="#000000" transform="matrix(1,0,0,1,0,0)"></rect><rect width="28" height="28" x="834" y="834" opacity="1" fill="#000000" transform="matrix(1,0,0,1,0,0)"></rect><rect width="28" height="28" x="750" y="722" opacity="1" fill="#000000" transform="matrix(1,0,0,1,0,0)"></rect><rect width="28" height="28" x="778" y="722" opacity="1" fill="#000000" transform="matrix(1,0,0,1,0,0)"></rect><rect width="28" height="28" x="806" y="722" opacity="1" fill="#000000" transform="matrix(1,0,0,1,0,0)"></rect><rect width="28" height="28" x="834" y="722" opacity="1" fill="#000000" transform="matrix(1,0,0,1,0,0)"></rect><rect width="28" height="28" x="722" y="834" opacity="1" fill="#000000" transform="matrix(1,0,0,1,0,0)"></rect><rect width="28" height="28" x="750" y="834" opacity="1" fill="#000000" transform="matrix(1,0,0,1,0,0)"></rect><rect width="28" height="28" x="778" y="834" opacity="1" fill="#000000" transform="matrix(1,0,0,1,0,0)"></rect><rect width="28" height="28" x="806" y="834" opacity="1" fill="#000000" transform="matrix(1,0,0,1,0,0)"></rect><rect width="28" height="28" x="778" y="778" opacity="1" fill="#000000" transform="matrix(1,0,0,1,0,0)"></rect></svg>